# xmcd
#
# Track frame offsets:
#	150
#	13255
#	35767
#	57730
#	73130
#
# Disc length: 1252 seconds
#
# Revision: 1
# Processed by: cddbd v1.5.1PL0 Copyright (c) Steve Scherf et al.
# Submitted via: CDex 1.50Beta5
#
DISCID=4c04e205
DTITLE=Super Egg Machine - Stereo Ironic
DYEAR=2003
DGENRE=Rock
TTITLE0=炭酸ベイブ
TTITLE1=Rebirth
TTITLE2=ブルーのソファ
TTITLE3=Want To Trust
TTITLE4=蒼い視界
EXTD=
EXTT0=
EXTT1=
EXTT2=
EXTT3=
EXTT4=
PLAYORDER=
